<svg width="24" height="24" viewBox="0 0 24 24" fill="none" xmlns="http://www.w3.org/2000/svg">
<g clip-path="url(#clip0)">
<path d="M23.9766 7.05607C23.9203 5.78085 23.7141 4.90416 23.4187 4.14449C23.114 3.33812 22.6451 2.61617 22.0309 2.01602C21.4307 1.40652 20.704 0.932921 19.907 0.632936C19.1429 0.337529 18.2708 0.131312 16.9956 0.0750879C15.7108 0.0141019 15.303 0 12.0445 0C8.78608 0 8.37822 0.0141019 7.09825 0.0703262C5.82303 0.126551 4.94634 0.332951 4.18685 0.628174C3.38029 0.932922 2.65835 1.40176 2.0582 2.01602C1.4487 2.61617 0.975281 3.34288 0.675112 4.13991C0.379705 4.90416 0.173488 5.77609 0.117263 7.0513C0.0562772 8.33604 0.0421753 8.7439 0.0421753 12.0023C0.0421753 15.2608 0.0562772 15.6686 0.112502 16.9486C0.168726 18.2238 0.375126 19.1005 0.670533 19.8602C0.975281 20.6666 1.4487 21.3885 2.0582 21.9887C2.65835 22.5982 3.38506 23.0718 4.18209 23.3718C4.94634 23.6672 5.81827 23.8734 7.09367 23.9296C8.37346 23.986 8.7815 23.9999 12.04 23.9999C15.2984 23.9999 15.7063 23.986 16.9862 23.9296C18.2614 23.8734 19.1381 23.6672 19.8976 23.3718C21.5106 22.7482 22.7858 21.4729 23.4094 19.8602C23.7046 19.096 23.911 18.2238 23.9672 16.9486C24.0234 15.6686 24.0375 15.2608 24.0375 12.0023C24.0375 8.7439 24.0328 8.33604 23.9766 7.05607ZM21.8153 16.8549C21.7637 18.027 21.5668 18.6599 21.4027 19.0819C20.9994 20.1274 20.1696 20.9572 19.124 21.3605C18.7021 21.5246 18.0646 21.7215 16.897 21.7729C15.6312 21.8293 15.2515 21.8433 12.0493 21.8433C8.84706 21.8433 8.46265 21.8293 7.20136 21.7729C6.02925 21.7215 5.39631 21.5246 4.97436 21.3605C4.45405 21.1682 3.98045 20.8634 3.59603 20.4649C3.19752 20.0758 2.89277 19.6069 2.70047 19.0866C2.53638 18.6647 2.3395 18.027 2.28804 16.8596C2.23163 15.5937 2.21771 15.2139 2.21771 12.0117C2.21771 8.80946 2.23163 8.42505 2.28804 7.16394C2.3395 5.99183 2.53638 5.3589 2.70047 4.93694C2.89277 4.41645 3.19752 3.94303 3.6008 3.55843C3.98979 3.15992 4.45863 2.85517 4.97912 2.66306C5.40108 2.49896 6.03877 2.30209 7.20612 2.25044C8.47199 2.19422 8.85183 2.18011 12.0539 2.18011C15.2609 2.18011 15.6405 2.19422 16.9018 2.25044C18.0739 2.30209 18.7068 2.49896 19.1288 2.66306C19.6491 2.85517 20.1227 3.15992 20.5071 3.55843C20.9056 3.94761 21.2104 4.41645 21.4027 4.93694C21.5668 5.3589 21.7637 5.99641 21.8153 7.16394C21.8715 8.42981 21.8856 8.80946 21.8856 12.0117C21.8856 15.2139 21.8715 15.589 21.8153 16.8549Z" fill="white"/>
<path d="M12.0445 5.83704C8.64079 5.83704 5.87921 8.59844 5.87921 12.0023C5.87921 15.4062 8.64079 18.1676 12.0445 18.1676C15.4483 18.1676 18.2097 15.4062 18.2097 12.0023C18.2097 8.59844 15.4483 5.83704 12.0445 5.83704ZM12.0445 16.0016C9.83634 16.0016 8.04522 14.2106 8.04522 12.0023C8.04522 9.79399 9.83634 8.00305 12.0445 8.00305C14.2528 8.00305 16.0437 9.79399 16.0437 12.0023C16.0437 14.2106 14.2528 16.0016 12.0445 16.0016Z" fill="white"/>
<path d="M19.893 5.5933C19.893 6.38813 19.2486 7.03261 18.4535 7.03261C17.6587 7.03261 17.0142 6.38813 17.0142 5.5933C17.0142 4.79828 17.6587 4.15399 18.4535 4.15399C19.2486 4.15399 19.893 4.79828 19.893 5.5933Z" fill="white"/>
</g>
<defs>
<clipPath id="clip0">
<rect width="24" height="24" fill="white"/>
</clipPath>
</defs>
</svg>
