<svg width="565" height="221" viewBox="0 0 565 221" fill="none" xmlns="http://www.w3.org/2000/svg">
<path d="M565 86C565 86 448.8 218.601 245.756 220.006C42.8981 221.41 0.000169958 166.73 0 166.535C0.000220715 166.706 42.9241 209.594 245.756 210.296C448.8 210.998 565 86 565 86Z" fill="black"/>
<path d="M233.477 33.4062C233.477 39.0312 232.773 44.4688 231.367 49.7188C229.961 54.9688 228.086 60.0312 225.742 64.9062C223.398 69.7812 220.633 74.5156 217.445 79.1094C214.352 83.7031 211.117 88.1094 207.742 92.3281C205.492 95.1406 202.82 98 199.727 100.906C196.727 103.812 193.492 106.484 190.023 108.922C186.555 111.359 182.898 113.328 179.055 114.828C175.305 116.422 171.555 117.219 167.805 117.219C164.711 117.219 161.711 116.703 158.805 115.672C155.898 114.734 153.273 113.375 150.93 111.594C148.586 109.812 146.617 107.656 145.023 105.125C143.523 102.5 142.633 99.5469 142.352 96.2656C142.258 95.4219 142.164 94.5781 142.07 93.7344C142.07 92.7969 142.07 91.9062 142.07 91.0625C142.07 86.2812 142.586 81.6406 143.617 77.1406C144.648 72.6406 146.008 68.2344 147.695 63.9219C149.477 59.6094 151.492 55.4375 153.742 51.4062C156.086 47.375 158.523 43.3906 161.055 39.4531C162.742 37.0156 164.383 34.5312 165.977 32C167.664 29.4688 169.445 26.9844 171.32 24.5469C171.883 23.9844 172.445 23.7031 173.008 23.7031C173.57 23.7031 174.039 23.9375 174.414 24.4062C174.883 24.7812 175.117 25.25 175.117 25.8125C175.117 26.0938 175.023 26.5156 174.836 27.0781C171.836 31.7656 168.742 36.5937 165.555 41.5625C162.461 46.4375 159.602 51.5 156.977 56.75C154.445 61.9062 152.336 67.25 150.648 72.7812C149.055 78.2188 148.258 83.8906 148.258 89.7969C148.258 90.7344 148.258 91.6719 148.258 92.6094C148.258 93.4531 148.352 94.3906 148.539 95.4219C148.82 97.8594 149.523 100.016 150.648 101.891C151.773 103.672 153.18 105.219 154.867 106.531C156.555 107.844 158.477 108.828 160.633 109.484C162.789 110.141 164.992 110.469 167.242 110.469C170.523 110.469 173.805 109.766 177.086 108.359C180.461 106.859 183.648 105.031 186.648 102.875C189.742 100.625 192.602 98.1875 195.227 95.5625C197.945 92.8438 200.289 90.2656 202.258 87.8281C205.258 84.0781 208.164 80.0938 210.977 75.875C213.789 71.5625 216.273 67.1094 218.43 62.5156C220.68 57.9219 222.461 53.1875 223.773 48.3125C225.086 43.4375 225.742 38.5156 225.742 33.5469C225.742 30.3594 225.32 27.3594 224.477 24.5469C223.633 21.6406 222.32 19.1562 220.539 17.0938C218.852 14.9375 216.695 13.25 214.07 12.0312C211.539 10.8125 208.539 10.2031 205.07 10.2031C200.945 10.2031 197.055 10.9062 193.398 12.3125C189.836 13.7188 186.32 15.4531 182.852 17.5156C182.477 17.7031 182.102 17.7969 181.727 17.7969C181.07 17.7969 180.508 17.6094 180.039 17.2344C179.664 16.7656 179.477 16.25 179.477 15.6875C179.477 15.125 179.758 14.5625 180.32 14C183.883 11 188.008 8.51562 192.695 6.54688C197.477 4.57812 202.164 3.59375 206.758 3.59375C211.07 3.59375 214.867 4.39062 218.148 5.98438C221.523 7.57813 224.336 9.73437 226.586 12.4531C228.836 15.1719 230.523 18.3594 231.648 22.0156C232.867 25.5781 233.477 29.375 233.477 33.4062ZM288.602 48.875C288.602 49.0625 288.508 49.3438 288.32 49.7188C288.133 51.3125 287.945 52.8594 287.758 54.3594C287.664 55.7656 287.477 57.2188 287.195 58.7188C286.727 61.8125 286.211 64.8594 285.648 67.8594C285.086 70.8594 284.477 73.8594 283.82 76.8594C281.477 87.6406 278.57 98.2344 275.102 108.641C271.727 119.047 267.977 129.359 263.852 139.578C262.352 143.234 260.758 146.891 259.07 150.547C257.477 154.297 255.648 157.906 253.586 161.375C251.617 164.938 249.414 168.312 246.977 171.5C244.539 174.688 241.773 177.594 238.68 180.219C234.367 184.062 229.398 185.984 223.773 185.984C220.773 185.984 217.867 185.469 215.055 184.438C212.242 183.406 209.617 182 207.18 180.219C204.742 178.531 202.586 176.469 200.711 174.031C198.742 171.688 197.242 169.156 196.211 166.438C196.117 166.344 196.07 166.109 196.07 165.734C196.07 165.172 196.305 164.703 196.773 164.328C197.242 163.953 197.758 163.766 198.32 163.766C198.977 163.766 199.539 164.094 200.008 164.75C200.477 165.594 200.945 166.438 201.414 167.281C201.789 168.125 202.305 168.922 202.961 169.672C205.398 172.672 208.398 175.156 211.961 177.125C215.43 179.188 219.086 180.219 222.93 180.219C227.336 180.219 231.227 178.672 234.602 175.578C237.227 173.234 239.711 170.375 242.055 167C244.398 163.625 246.602 159.969 248.664 156.031C250.82 152.094 252.789 147.969 254.57 143.656C256.445 139.344 258.133 135.031 259.633 130.719C261.227 126.5 262.68 122.375 263.992 118.344C265.305 114.312 266.523 110.609 267.648 107.234C264.273 110.516 260.617 113.094 256.68 114.969C252.742 116.844 248.383 117.781 243.602 117.781C243.508 117.781 243.367 117.781 243.18 117.781C242.992 117.781 242.852 117.734 242.758 117.641C240.602 117.172 238.773 116.328 237.273 115.109C235.867 113.891 234.695 112.484 233.758 110.891C232.914 109.203 232.305 107.422 231.93 105.547C231.555 103.578 231.367 101.609 231.367 99.6406C231.367 94.0156 232.164 88.4375 233.758 82.9062C235.445 77.375 237.93 72.2656 241.211 67.5781C243.273 64.7656 245.617 62.0469 248.242 59.4219C250.867 56.7031 253.727 54.3594 256.82 52.3906C259.914 50.3281 263.195 48.6875 266.664 47.4688C270.133 46.1562 273.695 45.5 277.352 45.5C277.914 45.5 278.805 45.5469 280.023 45.6406C281.242 45.7344 282.461 45.9219 283.68 46.2031C284.992 46.3906 286.117 46.7188 287.055 47.1875C288.086 47.6562 288.602 48.2188 288.602 48.875ZM283.68 50.5625C282.273 50.1875 280.68 50 278.898 50C275.617 50 272.383 50.6094 269.195 51.8281C266.008 53.0469 263.008 54.6875 260.195 56.75C257.383 58.7188 254.805 60.9688 252.461 63.5C250.117 66.0312 248.055 68.5625 246.273 71.0938C243.648 75.0312 241.633 79.3906 240.227 84.1719C238.914 88.9531 238.258 93.7344 238.258 98.5156C238.258 99.5469 238.305 100.766 238.398 102.172C238.586 103.578 238.867 104.938 239.242 106.25C239.711 107.469 240.367 108.547 241.211 109.484C242.148 110.328 243.32 110.75 244.727 110.75C247.633 110.75 250.445 110.047 253.164 108.641C255.977 107.234 258.555 105.453 260.898 103.297C263.242 101.141 265.305 98.75 267.086 96.125C268.961 93.4062 270.461 90.8281 271.586 88.3906C274.398 82.2969 276.648 76.0625 278.336 69.6875C280.117 63.3125 281.898 56.9375 283.68 50.5625ZM355.68 91.0625C353.242 96.0312 350.711 100.484 348.086 104.422C345.461 108.266 342.039 112.016 337.82 115.672C335.758 117.547 333.414 118.484 330.789 118.484C329.383 118.484 328.023 118.062 326.711 117.219C325.492 116.469 324.648 115.391 324.18 113.984C323.992 113.516 323.852 112.859 323.758 112.016C323.758 111.172 323.711 110.281 323.617 109.344C323.617 108.406 323.617 107.516 323.617 106.672C323.711 105.734 323.758 104.984 323.758 104.422C320.477 108.359 316.586 111.688 312.086 114.406C307.68 117.219 302.805 118.625 297.461 118.625C297.18 118.625 296.758 118.531 296.195 118.344C295.727 118.156 295.352 118.016 295.07 117.922C292.914 116.891 291.273 115.25 290.148 113C289.117 110.75 288.602 108.5 288.602 106.25C288.602 103.156 288.977 100.109 289.727 97.1094C290.57 94.0156 291.648 91.0625 292.961 88.25C294.367 85.3438 295.961 82.5781 297.742 79.9531C299.523 77.3281 301.398 74.8438 303.367 72.5C308.43 66.2188 314.242 60.7812 320.805 56.1875C327.367 51.5 334.492 47.75 342.18 44.9375C342.273 44.8438 342.461 44.7969 342.742 44.7969C343.398 44.7969 343.867 45.0312 344.148 45.5C344.523 45.9688 344.711 46.4844 344.711 47.0469C344.711 47.8906 344.383 48.4531 343.727 48.7344C342.133 49.5781 340.539 50.375 338.945 51.125C337.445 51.7812 335.945 52.5312 334.445 53.375C324.039 59.375 315.273 67.0625 308.148 76.4375C306.742 78.3125 305.289 80.4219 303.789 82.7656C302.289 85.1094 300.93 87.5469 299.711 90.0781C298.492 92.5156 297.461 95.0469 296.617 97.6719C295.867 100.297 295.492 102.828 295.492 105.266C295.492 105.641 295.539 106.203 295.633 106.953C295.727 107.609 295.867 108.312 296.055 109.062C296.242 109.719 296.523 110.328 296.898 110.891C297.367 111.359 297.883 111.594 298.445 111.594C301.164 111.594 303.789 110.891 306.32 109.484C308.945 108.078 311.383 106.297 313.633 104.141C315.883 101.984 317.898 99.6875 319.68 97.25C321.461 94.8125 322.914 92.5156 324.039 90.3594C326.195 86.4219 328.117 82.4844 329.805 78.5469C331.492 74.5156 333.18 70.4844 334.867 66.4531C335.523 64.7656 336.273 62.7969 337.117 60.5469C338.055 58.2969 338.945 56.375 339.789 54.7812C340.164 54.125 340.773 53.7969 341.617 53.7969C342.273 53.7969 342.836 53.9844 343.305 54.3594C343.773 54.7344 344.008 55.25 344.008 55.9062L343.867 56.1875C343.117 59.5625 342.273 62.9844 341.336 66.4531C340.398 69.8281 339.367 73.1562 338.242 76.4375C337.773 77.75 337.211 79.2031 336.555 80.7969C335.898 82.3906 335.383 83.75 335.008 84.875C334.82 85.5312 334.68 86.1875 334.586 86.8438C334.586 87.5 334.539 88.1562 334.445 88.8125C334.164 90.3125 333.836 91.8125 333.461 93.3125C333.18 94.7188 332.852 96.1719 332.477 97.6719C332.008 99.5469 331.586 101.469 331.211 103.438C330.93 105.312 330.789 107.234 330.789 109.203C330.789 109.672 330.789 110.094 330.789 110.469C330.789 110.844 330.836 111.219 330.93 111.594C331.586 111.594 332.336 111.312 333.18 110.75C334.117 110.188 335.055 109.531 335.992 108.781C336.93 107.938 337.773 107.094 338.523 106.25C339.367 105.406 340.023 104.75 340.492 104.281C343.305 101.281 345.977 97.9531 348.508 94.2969C349.164 93.5469 349.727 92.75 350.195 91.9062C350.758 90.9688 351.367 90.125 352.023 89.375C352.305 88.9062 352.727 88.6719 353.289 88.6719C353.945 88.6719 354.508 88.9062 354.977 89.375C355.445 89.8438 355.68 90.4062 355.68 91.0625Z" fill="black"/>
</svg>
